<mxfile host="app.diagrams.net" modified="2024-05-16T09:16:52.993Z" agent="Mozilla/5.0 (Windows NT 10.0; Win64; x64) AppleWebKit/537.36 (KHTML, like Gecko) Chrome/125.0.0.0 Safari/537.36" version="24.4.2" etag="SxoyIzkNP92IFCzae44R" type="github">
  <diagram name="Page-1" id="BlhVtbGSUvtdu9xmdjIC">
    <mxGraphModel>
      <root>
        <mxCell id="0" />
        <mxCell id="1" parent="0" />
      </root>
    </mxGraphModel>
  </diagram>
</mxfile>
